<svg xmlns="http://www.w3.org/2000/svg" viewBox="0 0 2623.95 2623.95"><defs><style>.cls-1{fill:#fe7e7e;}.cls-2,.cls-3,.cls-5,.cls-6{fill:none;stroke-miterlimit:10;}.cls-2{stroke:#fe7e7e;stroke-width:23px;}.cls-3,.cls-5,.cls-6{stroke:#fff;}.cls-3{stroke-width:15px;}.cls-4{fill:#fff;}.cls-5{stroke-width:16px;}.cls-6{stroke-width:40px;}</style></defs><g id="Lines"><g id="Left"><polygon class="cls-1" points="2048.97 833.02 1894.72 638.98 2048.97 639.98 2048.97 833.02"/><polygon class="cls-1" points="1739.97 639.98 2048.97 990.6 2048.97 1189.69 1467.03 638.98 1739.97 639.98"/></g><g id="Right"><polygon class="cls-1" points="574.98 1798.93 729.23 1992.97 574.98 1991.97 574.98 1798.93"/><polygon class="cls-1" points="883.98 1991.97 574.98 1641.35 574.98 1442.26 1156.92 1992.97 883.98 1991.97"/></g><path class="cls-2" d="M2036.48,1160.48c.21.11,1,25,1,25s-15.06,1010-998,773"/></g><g id="Face"><g id="Mouth"><circle id="Mouth-2" data-name="Mouth" class="cls-3" cx="1292.29" cy="1408.57" r="218.77"/></g><g id="Eyes"><g id="Eye"><circle class="cls-3" cx="1032.3" cy="1152.34" r="97.36"/><path class="cls-4" d="M1022.87,1115.39a35,35,0,0,1,5.53-1.32c-3.09.41,1,.1,1.67.09s6.17.64,3.08.08a45,45,0,0,1,4.85,1.16c.68.2,1.36.43,2,.67-1.37-.65-1.26-.6.35.16a48.58,48.58,0,0,1,4.33,2.45c.6.38,1.18.78,1.75,1.2q-1.76-1.34.26.35c.37.39,4,4.41,2.39,2.25,4.89,6.44,12.93,9.83,20.52,5.39,6.34-3.71,10.32-14,5.38-20.53-14-18.43-37.36-27.76-60.11-20.88a15.29,15.29,0,0,0-10.48,18.45c2.11,7.69,10.67,12.84,18.45,10.48Z"/><path class="cls-4" d="M1080.59,1163c7.84,0,15.36-6.9,15-15s-6.59-15-15-15c-7.85,0-15.37,6.9-15,15s6.59,15,15,15Z"/></g><g id="Eye-2" data-name="Eye"><circle class="cls-5" cx="1566.22" cy="1162.21" r="97.36"/><path class="cls-4" d="M1556.79,1125.26a35,35,0,0,1,5.53-1.32c-3.09.41,1,.1,1.67.09s6.16.64,3.08.08a42.74,42.74,0,0,1,4.85,1.16c.68.2,1.36.43,2,.67q-2.06-1,.35.15a48.34,48.34,0,0,1,4.33,2.46c.6.38,1.19.78,1.76,1.2q-1.76-1.34.26.35c.36.39,4,4.41,2.39,2.25,4.89,6.44,12.92,9.83,20.52,5.38,6.34-3.7,10.31-14,5.38-20.52-14-18.43-37.36-27.76-60.11-20.88a15.29,15.29,0,0,0-10.48,18.45c2.11,7.69,10.67,12.83,18.45,10.48Z"/><path class="cls-4" d="M1614.51,1172.88c7.84,0,15.36-6.9,15-15s-6.6-15-15-15c-7.85,0-15.37,6.89-15,15s6.59,15,15,15Z"/></g></g></g><g id="Circle"><circle class="cls-6" cx="1311.98" cy="1311.98" r="1103"/></g></svg>